<svg width="41" height="40" viewBox="0 0 41 40" fill="none" xmlns="http://www.w3.org/2000/svg">
<path d="M32.5437 8.1831C30.9773 6.63994 29.1117 5.41637 27.0557 4.5837C24.9997 3.75103 22.7944 3.3259 20.5683 3.3331C11.2408 3.3331 3.63875 10.7498 3.63875 19.8498C3.63875 22.7664 4.42458 25.5998 5.89375 28.0998L3.50208 36.6664L12.4708 34.3664C14.9479 35.6831 17.7325 36.3831 20.5683 36.3831C29.8958 36.3831 37.4979 28.9664 37.4979 19.8664C37.4979 15.4498 35.7383 11.2998 32.5437 8.1831ZM20.5683 33.5831C18.04 33.5831 15.5629 32.9164 13.3933 31.6664L12.8808 31.3664L7.55083 32.7331L8.96875 27.6664L8.62708 27.1498C7.22206 24.9615 6.47616 22.4319 6.47458 19.8498C6.47458 12.2831 12.7954 6.11643 20.5512 6.11643C24.3096 6.11643 27.8458 7.54976 30.4937 10.1498C31.8051 11.4229 32.8443 12.9373 33.551 14.6053C34.2578 16.2733 34.618 18.0616 34.6108 19.8664C34.645 27.4331 28.3242 33.5831 20.5683 33.5831ZM28.29 23.3164C27.8629 23.1164 25.7787 22.1164 25.4029 21.9664C25.01 21.8331 24.7367 21.7664 24.4462 22.1664C24.1558 22.5831 23.3529 23.5164 23.1137 23.7831C22.8746 24.0664 22.6183 24.0998 22.1912 23.8831C21.7642 23.6831 20.3975 23.2331 18.7917 21.8331C17.5275 20.7331 16.6904 19.3831 16.4342 18.9664C16.195 18.5498 16.4 18.3331 16.6221 18.1164C16.81 17.9331 17.0492 17.6331 17.2542 17.3998C17.4592 17.1664 17.5446 16.9831 17.6812 16.7164C17.8179 16.4331 17.7496 16.1998 17.6471 15.9998C17.5446 15.7998 16.6904 13.7664 16.3487 12.9331C16.0071 12.1331 15.6483 12.2331 15.3921 12.2164H14.5721C14.2817 12.2164 13.8375 12.3164 13.4446 12.7331C13.0687 13.1498 11.9754 14.1498 11.9754 16.1831C11.9754 18.2164 13.4958 20.1831 13.7008 20.4498C13.9058 20.7331 16.6904 24.8998 20.9271 26.6831C21.935 27.1164 22.7208 27.3664 23.3358 27.5498C24.3437 27.8664 25.2662 27.8164 26.0008 27.7164C26.8208 27.5998 28.5121 26.7164 28.8537 25.7498C29.2125 24.7831 29.2125 23.9664 29.0929 23.7831C28.9733 23.5998 28.7171 23.5164 28.29 23.3164Z" fill="#F8FAFC" fill-opacity="0.65"/>
</svg>
