<svg width="77" height="77" viewBox="0 0 77 77" fill="none" xmlns="http://www.w3.org/2000/svg">
<path d="M58.9114 41.4647H51.6927C51.2692 41.4647 51.0831 41.3331 51.0831 40.9128V33.5176C51.0831 33.2128 50.9708 33.1968 50.743 33.1968H48.3368C48.0929 33.1968 48.0159 33.1968 48.0159 33.5176V40.6594C48.0159 43.0367 48.8661 43.8067 51.1825 43.8067H58.9499C59.2355 43.8067 59.2355 43.7137 59.2355 43.4699V41.8144C59.2355 41.5737 59.2355 41.4647 58.9146 41.4647H58.9114ZM45.7284 33.1968H37.9514C35.821 33.1968 34.5409 33.8737 34.5409 36.1067V40.9C34.5409 43.1458 35.8242 43.8067 37.977 43.8067H45.7284C46.0492 43.8067 46.0171 43.7137 46.0171 43.4859V41.8272C46.0171 41.6026 46.0171 41.5064 45.7284 41.5064H38.1086C37.7685 41.5064 37.592 41.3812 37.592 41.038V39.5846H45.5198C45.8246 39.5846 45.8086 39.4883 45.8086 39.2637V37.6275C45.8086 37.3869 45.8086 37.3067 45.5198 37.3067H37.592V35.956C37.592 35.6191 37.7685 35.4907 38.1086 35.4907H45.7284C46.0492 35.4907 46.0171 35.3945 46.0171 35.1539V33.5112C46.0171 33.2962 46.046 33.1968 45.7284 33.1968ZM32.5132 33.1968H24.7395C22.6091 33.1968 21.3001 33.8737 21.3001 36.1067V40.9C21.3001 43.1458 22.6187 43.8067 24.7395 43.8067H32.5132C32.8148 43.8067 32.8148 43.7137 32.8148 43.4859V41.8272C32.8148 41.6026 32.8148 41.5064 32.5132 41.5064H24.9063C24.5855 41.5064 24.3897 41.3812 24.3897 41.038V39.5846H32.3015C32.6223 39.5846 32.6223 39.4883 32.6223 39.2637V37.6275C32.6223 37.3869 32.6223 37.3067 32.3015 37.3067H24.3833V35.956C24.3833 35.6191 24.563 35.4907 24.8999 35.4907H32.5068C32.8084 35.4907 32.8084 35.3945 32.8084 35.1539V33.5112C32.8373 33.2962 32.8373 33.1968 32.5132 33.1968ZM19.0062 33.1968H9.87204C7.71604 33.1968 6.41666 33.8737 6.41666 36.1067V40.9C6.41666 43.1458 7.7 43.8067 9.87204 43.8067H19.0062C19.311 43.8067 19.2949 43.7137 19.2949 43.4859V37.6339C19.2949 37.3933 19.2949 37.3131 19.0062 37.3131H11.4634C11.1586 37.3131 11.1778 37.3933 11.1778 37.6339V39.2766C11.1778 39.5012 11.1778 39.5974 11.4634 39.5974H16.2181V41.5224H10.0004C9.67954 41.5224 9.49025 41.3973 9.49025 41.054V35.9624C9.49025 35.6255 9.67633 35.4972 10.0004 35.4972H19.0062C19.311 35.4972 19.2949 35.4009 19.2949 35.1603V33.5176C19.2949 33.2962 19.2949 33.1968 19.0062 33.1968ZM70.362 33.1968H67.5803C67.4125 33.1817 67.2435 33.2058 67.0865 33.267C66.9295 33.3282 66.7889 33.425 66.6756 33.5497L62.8256 37.7494L59.0333 33.5497C58.9168 33.4247 58.7733 33.3279 58.6138 33.2668C58.4542 33.2056 58.2828 33.1817 58.1125 33.1968H55.3341C55.1128 33.1968 55.0133 33.3123 55.2892 33.5978L61.3145 40.223V43.5052C61.3145 43.8067 61.4107 43.8067 61.6545 43.8067H64.064C64.2886 43.8067 64.3848 43.8067 64.3848 43.5052V40.223L70.4293 33.5978C70.6828 33.3123 70.6026 33.1968 70.362 33.1968Z" fill="currentColor"/>
</svg>
