<svg width="77" height="77" viewBox="0 0 77 77" fill="none" xmlns="http://www.w3.org/2000/svg">
<g clip-path="url(#clip0_462_367)">
<path fill-rule="evenodd" clip-rule="evenodd" d="M68.1065 35.5429L60.4527 0H36.8214L44.4444 35.5429H68.1065Z" fill="currentColor"/>
<path fill-rule="evenodd" clip-rule="evenodd" d="M30.7461 36.9243C32.4786 40.7179 35.2968 41.3793 38.0072 41.3793H42.7427L50.4042 77.0001H30.8924C28.3976 77.0001 25.9413 76.825 23.5235 75.3465C21.0672 73.7707 18.9728 71.2611 16.9862 67.4675C12.8282 59.8803 10.5567 49.5112 8.1697 38.4028C6.2139 29.415 4.2812 20.4076 2.3716 11.3614C1.5785 7.66508 0.7854 3.96877 0 0.272461H21.9296C22.0374 0.758818 22.8305 4.45513 23.8007 8.94906C25.0789 14.9604 26.3725 20.9523 27.6815 26.9248C28.5054 30.7378 29.3062 34.0645 30.7461 36.9243Z" fill="currentColor"/>
<path fill-rule="evenodd" clip-rule="evenodd" d="M53.3687 76.9998L45.7072 41.2817H69.3077L77 76.9998H53.3687Z" fill="currentColor"/>
</g>
<defs>
<clipPath id="clip0_462_367">
<rect width="77" height="77" fill="white"/>
</clipPath>
</defs>
</svg>
