<svg width="77" height="77" viewBox="0 0 77 77" fill="none" xmlns="http://www.w3.org/2000/svg">
<path fill-rule="evenodd" clip-rule="evenodd" d="M38.5 6.4165C20.7804 6.4165 6.41666 20.7802 6.41666 38.4998C6.41666 56.2195 20.7804 70.5832 38.5 70.5832C56.2196 70.5832 70.5833 56.2195 70.5833 38.4998C70.5833 20.7802 56.2196 6.4165 38.5 6.4165ZM12.243 23.4207C14.871 18.8589 18.6417 15.06 23.1837 12.398C27.7258 9.73597 32.8828 8.30256 38.1471 8.23884L33.9987 35.7343L12.0665 53.4539C9.47887 48.8657 8.13398 43.6813 8.16493 38.4138C8.19588 33.1463 9.60159 27.9782 12.243 23.4207ZM38.6251 68.9148C33.3531 68.9462 28.1646 67.598 23.5748 65.0039C18.985 62.4099 15.1536 58.6604 12.4612 54.1276L38.5128 43.3444L64.6607 53.964C61.9949 58.5041 58.1915 62.2707 53.6259 64.8925C49.0602 67.5143 43.89 68.9007 38.6251 68.9148ZM42.8794 36.1L38.9235 8.23884C44.1649 8.31825 49.2963 9.75528 53.8166 12.4097C58.3379 15.0598 62.096 18.8356 64.7249 23.3693C67.3634 27.8962 68.7811 33.0307 68.839 38.2701C68.8969 43.5095 67.5932 48.6741 65.0554 53.2582L42.8794 36.1Z" fill="currentColor"/>
</svg>
