<svg width="77" height="77" viewBox="0 0 77 77" fill="none" xmlns="http://www.w3.org/2000/svg">
<path d="M44.5605 15.2397C42.5898 14.7039 40.5551 14.4395 38.5128 14.4537C36.4435 14.4537 34.4896 14.7296 32.5774 15.214L38.5802 32.0257L44.5605 15.2397ZM62.1775 38.513C62.1775 35.51 61.677 32.6481 60.676 29.9916L49.4244 59.8227C53.2823 57.7606 56.5069 54.6883 58.7533 50.9347C60.9997 47.1811 62.1833 42.8874 62.1775 38.513Z" fill="currentColor"/>
<path d="M50.4254 17.71L43.4922 37.1012H33.7164L26.7607 17.6138C24.1864 19.1168 21.9181 21.0912 20.0745 23.4337L29.9658 49.4789L33.5816 39.9662H43.0815L46.6973 49.4789L56.6784 23.1096C54.9212 20.9469 52.7969 19.1105 50.4029 17.6844" fill="currentColor"/>
<path d="M38.5128 6.4165C21.1237 6.4165 6.91075 20.8219 6.91075 38.5127C6.91075 56.197 21.1237 70.5832 38.5128 70.5832C55.902 70.5832 70.0925 56.1521 70.0925 38.5127C70.0925 20.8733 55.9277 6.4165 38.5128 6.4165ZM38.5128 66.4958C23.3503 66.4958 10.9372 53.9351 10.9372 38.5351C10.9372 23.1351 23.3246 10.5039 38.5128 10.5039C53.7011 10.5039 66.0885 23.087 66.0885 38.5351C66.0885 53.9833 53.7011 66.4958 38.5128 66.4958Z" fill="currentColor"/>
<path d="M38.3075 45.093L32.1924 61.186V61.6929C34.1944 62.2661 36.3012 62.5516 38.5128 62.5495C40.53 62.557 42.5395 62.3003 44.49 61.7859L44.4226 61.186L38.3075 45.093ZM14.845 38.5127C14.8321 42.8026 15.9678 47.0178 18.1342 50.7205C20.3007 54.4232 23.4189 57.4784 27.165 59.569L16.1892 30.5239C15.2879 33.0904 14.831 35.7926 14.845 38.5127Z" fill="currentColor"/>
</svg>
