<svg width="58" height="58" viewBox="0 0 58 58" fill="none" xmlns="http://www.w3.org/2000/svg">
<g clip-path="url(#clip0_524_191)">
<path d="M29.9506 18.9626C29.7276 18.6119 29.3778 18.3609 28.9742 18.2621C28.5706 18.1632 28.1444 18.2241 27.7847 18.4321C27.4249 18.64 27.1594 18.979 27.0436 19.378C26.9278 19.7771 26.9707 20.2055 27.1633 20.5737L31.1911 27.5659L21.4117 25.9548L29.9345 43.0165C30.1323 43.3855 30.4661 43.6629 30.865 43.7901C31.2639 43.9173 31.6967 43.8841 32.0716 43.6977C32.4465 43.5113 32.7341 43.1863 32.8735 42.7915C33.0129 42.3967 32.9931 41.9631 32.8183 41.5826L27.1311 30.1759L37.41 31.8837L29.9506 18.9626Z" fill="#F2F8FC"/>
<path d="M40.4711 6.44488H37.0556V5.76821C37.0556 5.09309 36.7874 4.44562 36.31 3.96823C35.8326 3.49085 35.1851 3.22266 34.51 3.22266H23.49C22.8149 3.22266 22.1674 3.49085 21.69 3.96823C21.2126 4.44562 20.9444 5.09309 20.9444 5.76821V6.44488H17.5289C16.7256 6.44488 15.9552 6.76399 15.3871 7.33202C14.8191 7.90005 14.5 8.67046 14.5 9.47377V51.7493C14.5 52.1471 14.5783 52.5409 14.7306 52.9084C14.8828 53.2759 15.1059 53.6098 15.3871 53.8911C15.6684 54.1723 16.0023 54.3954 16.3698 54.5476C16.7373 54.6999 17.1311 54.7782 17.5289 54.7782H40.4711C41.2744 54.7782 42.0448 54.4591 42.6129 53.8911C43.1809 53.323 43.5 52.5526 43.5 51.7493V9.47377C43.5 8.67046 43.1809 7.90005 42.6129 7.33202C42.0448 6.76399 41.2744 6.44488 40.4711 6.44488ZM40.2778 51.556H17.7222V9.6671H24.1667V6.44488H33.8333V9.6671H40.2778V51.556Z" fill="#F2F8FC"/>
</g>
<defs>
<clipPath id="clip0_524_191">
<rect width="58" height="58" fill="white"/>
</clipPath>
</defs>
</svg>
