<svg width="35" height="35" viewBox="0 0 35 35" fill="none" xmlns="http://www.w3.org/2000/svg">
<g clip-path="url(#clip0_468_237)">
<path d="M18.0736 11.4428C17.9391 11.2312 17.728 11.0798 17.4844 11.0201C17.2409 10.9604 16.9837 10.9972 16.7666 11.1227C16.5495 11.2482 16.3893 11.4527 16.3194 11.6935C16.2496 11.9344 16.2754 12.1929 16.3917 12.4151L18.8222 16.6345L12.9208 15.6623L18.0639 25.9581C18.1833 26.1808 18.3847 26.3482 18.6254 26.425C18.8662 26.5017 19.1273 26.4817 19.3535 26.3692C19.5798 26.2567 19.7533 26.0606 19.8374 25.8223C19.9216 25.5841 19.9096 25.3224 19.8042 25.0928L16.3722 18.2095L22.575 19.2401L18.0736 11.4428Z" fill="#1B3B6F"/>
<path d="M24.4222 3.88878H22.3611V3.48045C22.3611 3.07305 22.1993 2.68233 21.9112 2.39425C21.6231 2.10618 21.2324 1.94434 20.825 1.94434H14.175C13.7676 1.94434 13.3769 2.10618 13.0888 2.39425C12.8007 2.68233 12.6389 3.07305 12.6389 3.48045V3.88878H10.5778C10.093 3.88878 9.62812 4.08135 9.28534 4.42412C8.94257 4.7669 8.75 5.2318 8.75 5.71656V31.2277C8.75 31.4677 8.79728 31.7054 8.88913 31.9271C8.98099 32.1489 9.11562 32.3504 9.28534 32.5201C9.45507 32.6898 9.65656 32.8245 9.87832 32.9163C10.1001 33.0082 10.3378 33.0555 10.5778 33.0555H24.4222C24.907 33.0555 25.3719 32.8629 25.7147 32.5201C26.0574 32.1773 26.25 31.7124 26.25 31.2277V5.71656C26.25 5.2318 26.0574 4.7669 25.7147 4.42412C25.3719 4.08135 24.907 3.88878 24.4222 3.88878ZM24.3056 31.111H10.6944V5.83323H14.5833V3.88878H20.4167V5.83323H24.3056V31.111Z" fill="#1B3B6F"/>
</g>
<defs>
<clipPath id="clip0_468_237">
<rect width="35" height="35" fill="white"/>
</clipPath>
</defs>
</svg>
