<svg width="57" height="57" viewBox="0 0 57 57" fill="none" xmlns="http://www.w3.org/2000/svg">
<path d="M17.8125 6.91663L5.34375 13.151V49.875H51.6562V17.8125H30.2812V13.151L17.8125 6.91663ZM17.8125 10.8959L26.7188 15.3491V46.3125H8.90625V15.3491L17.8125 10.8959ZM12.4688 17.8125V21.375H16.0312V17.8125H12.4688ZM19.5938 17.8125V21.375H23.1562V17.8125H19.5938ZM30.2812 21.375H48.0938V46.3125H30.2812V21.375ZM12.4688 24.9375V28.5H16.0312V24.9375H12.4688ZM19.5938 24.9375V28.5H23.1562V24.9375H19.5938ZM33.8438 24.9375V28.5H37.4062V24.9375H33.8438ZM40.9688 24.9375V28.5H44.5312V24.9375H40.9688ZM12.4688 32.0625V35.625H16.0312V32.0625H12.4688ZM19.5938 32.0625V35.625H23.1562V32.0625H19.5938ZM33.8438 32.0625V35.625H37.4062V32.0625H33.8438ZM40.9688 32.0625V35.625H44.5312V32.0625H40.9688ZM12.4688 39.1875V42.75H16.0312V39.1875H12.4688ZM19.5938 39.1875V42.75H23.1562V39.1875H19.5938ZM33.8438 39.1875V42.75H37.4062V39.1875H33.8438ZM40.9688 39.1875V42.75H44.5312V39.1875H40.9688Z" fill="#F2F8FC"/>
</svg>
