<svg width="57" height="57" viewBox="0 0 57 57" fill="none" xmlns="http://www.w3.org/2000/svg">
<path d="M42.75 43.9375C44.7212 43.9375 46.3125 42.3462 46.3125 40.375C46.3125 38.4037 44.7212 36.8125 42.75 36.8125C40.7788 36.8125 39.1875 38.4037 39.1875 40.375C39.1875 42.3462 40.7788 43.9375 42.75 43.9375ZM46.3125 22.5625H40.375V28.5H50.9675L46.3125 22.5625ZM14.25 43.9375C16.2212 43.9375 17.8125 42.3462 17.8125 40.375C17.8125 38.4037 16.2212 36.8125 14.25 36.8125C12.2788 36.8125 10.6875 38.4037 10.6875 40.375C10.6875 42.3462 12.2788 43.9375 14.25 43.9375ZM47.5 19L54.625 28.5V40.375H49.875C49.875 44.3175 46.6925 47.5 42.75 47.5C38.8075 47.5 35.625 44.3175 35.625 40.375H21.375C21.375 44.3175 18.1925 47.5 14.25 47.5C10.3075 47.5 7.125 44.3175 7.125 40.375H2.375V14.25C2.375 11.6137 4.48875 9.5 7.125 9.5H40.375V19H47.5ZM7.125 14.25V35.625H8.93C10.2362 34.1763 12.1363 33.25 14.25 33.25C16.3637 33.25 18.2637 34.1763 19.57 35.625H35.625V14.25H7.125Z" fill="#F2F8FC"/>
</svg>
