<svg width="39" height="39" viewBox="0 0 39 39" fill="none" xmlns="http://www.w3.org/2000/svg">
<path d="M33.0525 15.1455L10.3025 3.77045C9.40468 3.32359 8.39088 3.16451 7.39933 3.31489C6.40779 3.46527 5.48675 3.91779 4.76179 4.61077C4.03683 5.30374 3.54324 6.20344 3.3483 7.18719C3.15337 8.17095 3.26658 9.19089 3.6725 10.108L7.5725 18.8342C7.66099 19.0452 7.70657 19.2717 7.70657 19.5005C7.70657 19.7292 7.66099 19.9557 7.5725 20.1667L3.6725 28.893C3.34214 29.6351 3.20248 30.4481 3.26621 31.2579C3.32995 32.0678 3.59506 32.8489 4.03745 33.5302C4.47984 34.2116 5.08548 34.7716 5.79934 35.1593C6.5132 35.547 7.31264 35.7503 8.125 35.7505C8.88588 35.7429 9.63542 35.5652 10.3188 35.2304L33.0688 23.8555C33.8757 23.4495 34.554 22.8273 35.028 22.0583C35.502 21.2893 35.753 20.4038 35.753 19.5005C35.753 18.5971 35.502 17.7116 35.028 16.9426C34.554 16.1736 33.8757 15.5514 33.0688 15.1455H33.0525ZM31.6063 20.9467L8.85625 32.3217C8.55752 32.4651 8.22206 32.5138 7.89488 32.4612C7.56769 32.4086 7.26442 32.2572 7.02571 32.0273C6.787 31.7975 6.62428 31.5001 6.55936 31.1751C6.49444 30.8502 6.53043 30.5131 6.6625 30.2092L10.5463 21.483C10.5965 21.3664 10.6399 21.2471 10.6763 21.1255H21.8725C22.3035 21.1255 22.7168 20.9542 23.0215 20.6495C23.3263 20.3448 23.4975 19.9314 23.4975 19.5005C23.4975 19.0695 23.3263 18.6562 23.0215 18.3514C22.7168 18.0467 22.3035 17.8755 21.8725 17.8755H10.6763C10.6399 17.7538 10.5965 17.6345 10.5463 17.518L6.6625 8.7917C6.53043 8.48777 6.49444 8.15072 6.55936 7.82575C6.62428 7.50078 6.787 7.20343 7.02571 6.97357C7.26442 6.7437 7.56769 6.59231 7.89488 6.5397C8.22206 6.48709 8.55752 6.53576 8.85625 6.6792L31.6063 18.0542C31.8724 18.1906 32.0958 18.3977 32.2518 18.6529C32.4078 18.9081 32.4903 19.2014 32.4903 19.5005C32.4903 19.7995 32.4078 20.0928 32.2518 20.348C32.0958 20.6032 31.8724 20.8103 31.6063 20.9467Z" fill="currentColor"/>
</svg>
