<svg width="57" height="57" viewBox="0 0 57 57" fill="none" xmlns="http://www.w3.org/2000/svg">
<path d="M15.4375 37.5C16.4271 37.5 17.2686 37.154 17.9621 36.4621C18.6556 35.7702 19.0016 34.9287 19 33.9375C18.9984 32.9463 18.6525 32.1056 17.9621 31.4152C17.2718 30.7249 16.4303 30.3782 15.4375 30.375C14.4447 30.3718 13.604 30.7186 12.9153 31.4152C12.2265 32.1119 11.8797 32.9527 11.875 33.9375C11.8703 34.9223 12.217 35.7639 12.9153 36.4621C13.6135 37.1604 14.4543 37.5063 15.4375 37.5ZM11.875 44.625V49.375H4.75V28L10.5687 11.375H21.375V16.125H13.8938L11.4 23.25H26.4812L31.2312 28H9.5V39.875H42.75V37.6781L47.5 32.9281V49.375H40.375V44.625H11.875ZM35.625 13.75C36.2979 13.75 36.8624 13.522 37.3184 13.066C37.7744 12.61 38.0016 12.0463 38 11.375C37.9984 10.7037 37.7704 10.14 37.316 9.684C36.8616 9.228 36.2979 9 35.625 9C34.9521 9 34.3884 9.228 33.934 9.684C33.4796 10.14 33.2516 10.7037 33.25 11.375C33.2484 12.0463 33.4764 12.6108 33.934 13.0684C34.3916 13.526 34.9552 13.7532 35.625 13.75ZM41.8 31.8594L26.125 16.125V1.875H40.375L56.05 17.6094L41.8 31.8594ZM41.8 25.15L49.3406 17.6094L38.3563 6.625H30.875V14.1656L41.8 25.15ZM36.8125 37.5C37.3667 37.5 37.8717 37.3915 38.3278 37.1746C38.7838 36.9577 39.1693 36.6505 39.4844 36.2531L34.4969 31.2656C34.101 31.5823 33.7947 31.9686 33.5777 32.4246C33.3608 32.8806 33.2516 33.3849 33.25 33.9375C33.25 34.9271 33.5968 35.7686 34.2902 36.4621C34.9837 37.1556 35.8245 37.5016 36.8125 37.5Z" fill="#F2F8FC"/>
</svg>
