<svg width="58" height="58" viewBox="0 0 58 58" fill="none" xmlns="http://www.w3.org/2000/svg">
<g clip-path="url(#clip0_524_198)">
<path d="M12.18 18.56C5.48622 18.56 0 24.0294 0 30.7052C0 33.292 0.82592 35.6961 2.2243 37.6722L10.694 52.3137C11.8801 53.8634 12.6689 53.5694 13.6555 52.2325L22.997 36.3347C23.1855 35.9925 23.3334 35.6294 23.4627 35.2582C24.0551 33.8133 24.3599 32.2668 24.36 30.7052C24.36 24.0294 18.8755 18.56 12.18 18.56ZM12.18 24.251C15.7853 24.251 18.6528 27.1109 18.6528 30.7058C18.6528 34.3006 15.7847 37.1594 12.18 37.1594C8.5753 37.1594 5.7072 34.3 5.7072 30.7058C5.7072 27.1115 8.57588 24.251 12.18 24.251ZM50.895 0C46.9904 0 43.79 3.19058 43.79 7.08528C43.79 8.59386 44.2714 9.9963 45.0875 11.1488L50.0285 19.6898C50.7204 20.5935 51.1804 20.4218 51.7557 19.6423L57.2048 10.3681C57.315 10.1691 57.4014 9.95744 57.4763 9.74052C57.8229 8.89824 58.0008 7.9961 58 7.08528C58 3.19 54.8007 0 50.895 0ZM50.895 3.31992C52.9981 3.31992 54.6708 4.988 54.6708 7.08528C54.6708 9.18256 52.9981 10.8495 50.895 10.8495C48.7919 10.8495 47.1192 9.18198 47.1192 7.08528C47.1192 4.98858 48.7925 3.31992 50.895 3.31992Z" fill="#F2F8FC"/>
<path fill-rule="evenodd" clip-rule="evenodd" d="M51.1612 21.6992C49.858 21.7282 48.5512 21.7833 47.2422 21.8802L47.444 25.0887C48.7015 24.9976 49.9611 24.939 51.2215 24.913L51.1612 21.6992ZM44.2157 22.1748C42.2031 22.4248 40.1731 22.7809 38.1663 23.3534L38.9221 26.4628C40.7456 25.9431 42.6352 25.6073 44.5544 25.3689L44.2157 22.1748ZM35.1613 24.4299C34.56 24.6952 33.9779 25.002 33.419 25.348L33.4167 25.3509L33.4132 25.3521C32.6157 25.8543 31.7753 26.4918 31.0892 27.418C30.5921 28.0891 30.1855 28.9376 30.0904 29.941L33.0455 30.2687C33.0675 30.0332 33.1882 29.7224 33.4051 29.43H33.4063V29.4289C33.756 28.9556 34.2803 28.5258 34.9038 28.1326L34.9061 28.1314C35.3509 27.8577 35.8136 27.6143 36.2912 27.4029L35.1613 24.4299ZM33.64 31.7002L31.7243 34.1565C32.1784 34.5717 32.6546 34.8907 33.1145 35.1575L33.1203 35.1604L33.1261 35.1639C34.6527 36.0322 36.2268 36.5223 37.6861 36.9874L38.5248 33.903C37.0661 33.4378 35.6909 32.9889 34.5123 32.3196C34.1748 32.1236 33.879 31.9188 33.64 31.7002ZM41.3743 34.7707L40.5553 37.8603L40.9428 37.981L41.4184 38.1329C42.9925 38.6451 44.5005 39.192 45.8484 39.9489L47.2161 37.0953C45.5863 36.1795 43.8944 35.5809 42.264 35.0508L42.2594 35.0497L41.771 34.8936L41.3743 34.7707ZM49.9972 39.2367L47.8958 41.5103C48.3923 42.0479 48.7641 42.6946 48.945 43.3628L48.9462 43.3663L48.9474 43.3715C49.1631 44.1516 49.1637 45.0692 48.9949 45.996L51.9088 46.6178C52.1466 45.3093 52.1849 43.8726 51.794 42.4545C51.4535 41.2006 50.8039 40.1113 49.9972 39.2367ZM47.9776 47.9332C47.6561 48.2719 47.3012 48.5773 46.9185 48.845H46.9174C45.8734 49.5792 44.6623 50.1326 43.3759 50.6082L44.3352 53.6497C45.7423 53.1294 47.1871 52.4914 48.5373 51.5414L48.5408 51.5385L48.5425 51.5373C49.0969 51.1489 49.6098 50.7044 50.0731 50.2109L47.9776 47.9332ZM40.6464 51.4648C38.7829 51.9659 36.8781 52.3476 34.9502 52.6712L35.4049 55.849C37.3891 55.5155 39.3814 55.1171 41.3615 54.5846L40.6464 51.4648ZM32.0496 53.1097C30.109 53.3748 28.1578 53.5911 26.2009 53.7755L26.4573 56.9783C28.4444 56.7915 30.4349 56.5717 32.4226 56.2997L32.0496 53.1097ZM23.2597 54.0278C21.2988 54.1833 19.3331 54.3097 17.3658 54.4164L17.5143 57.6273C19.5008 57.52 21.489 57.3918 23.4767 57.2341L23.2597 54.0278ZM14.4095 54.5614C13.2304 54.6165 12.0483 54.6618 10.8634 54.7035L10.9608 57.9173C12.1532 57.8763 13.3453 57.8288 14.5371 57.7746L14.4095 54.5614Z" fill="#F2F8FC"/>
</g>
<defs>
<clipPath id="clip0_524_198">
<rect width="58" height="58" fill="white"/>
</clipPath>
</defs>
</svg>
