<svg width="35" height="35" viewBox="0 0 35 35" fill="none" xmlns="http://www.w3.org/2000/svg">
<path d="M7.35 11.4135C3.31065 11.4135 0 15.001 0 19.3798C0 21.0765 0.498399 22.6534 1.34225 23.9496L6.4533 33.5532C7.16905 34.5697 7.64505 34.3769 8.2404 33.5L13.8775 23.0723C13.9912 22.8478 14.0805 22.6097 14.1585 22.3662C14.516 21.4185 14.6999 20.404 14.7 19.3798C14.7 15.001 11.3904 11.4135 7.35 11.4135ZM7.35 15.1463C9.5256 15.1463 11.256 17.0222 11.256 19.3802C11.256 21.7381 9.52525 23.6132 7.35 23.6132C5.17475 23.6132 3.444 21.7377 3.444 19.3802C3.444 17.0226 5.1751 15.1463 7.35 15.1463ZM30.7125 1C28.3563 1 26.425 3.09277 26.425 5.64738C26.425 6.63689 26.7155 7.55678 27.2079 8.3127L30.1896 13.915C30.6071 14.5077 30.8847 14.3951 31.2319 13.8838L34.5201 7.80064C34.5866 7.67015 34.6388 7.53129 34.6839 7.38901C34.8931 6.83654 35.0005 6.24481 35 5.64738C35 3.09239 33.0694 1 30.7125 1ZM30.7125 3.1776C31.9816 3.1776 32.991 4.27173 32.991 5.64738C32.991 7.02303 31.9816 8.1164 30.7125 8.1164C29.4434 8.1164 28.434 7.02265 28.434 5.64738C28.434 4.27211 29.4437 3.1776 30.7125 3.1776Z" fill="#1B3B6F"/>
<path fill-rule="evenodd" clip-rule="evenodd" d="M30.8731 13.0942C30.0867 13.1117 29.2981 13.145 28.5082 13.2034L28.63 15.1396C29.3888 15.0846 30.1489 15.0493 30.9095 15.0336L30.8731 13.0942ZM26.6819 13.3812C25.4674 13.5321 24.2424 13.747 23.0314 14.0924L23.4874 15.9688C24.5878 15.6552 25.7281 15.4525 26.8863 15.3087L26.6819 13.3812ZM21.218 14.742C20.8552 14.9022 20.5039 15.0873 20.1666 15.2961L20.1652 15.2978L20.1631 15.2985C19.6819 15.6016 19.1747 15.9863 18.7607 16.5452C18.4607 16.9502 18.2154 17.4622 18.158 18.0677L19.9412 18.2655C19.9545 18.1234 20.0273 17.9358 20.1582 17.7594H20.1589V17.7587C20.37 17.4731 20.6864 17.2137 21.0626 16.9764L21.064 16.9757C21.3324 16.8106 21.6117 16.6637 21.8998 16.5361L21.218 14.742ZM20.3 19.1293L19.1439 20.6115C19.418 20.8621 19.7053 21.0546 19.9829 21.2156L19.9864 21.2174L19.9899 21.2195C20.9111 21.7434 21.861 22.0392 22.7416 22.3199L23.2477 20.4586C22.3674 20.1779 21.5376 19.907 20.8264 19.5031C20.6227 19.3848 20.4442 19.2612 20.3 19.1293ZM24.9672 20.9822L24.473 22.8466L24.7068 22.9194L24.9938 23.0111C25.9437 23.3202 26.8537 23.6502 27.6671 24.107L28.4924 22.385C27.5089 21.8323 26.488 21.4711 25.5041 21.1512L25.5013 21.1505L25.2066 21.0564L24.9672 20.9822ZM30.1707 23.6772L28.9026 25.0492C29.2022 25.3736 29.4266 25.7639 29.5358 26.1671L29.5365 26.1692L29.5372 26.1723C29.6674 26.6431 29.6677 27.1968 29.5659 27.7561L31.3243 28.1313C31.4678 27.3417 31.4909 26.4747 31.255 25.619C31.0495 24.8623 30.6575 24.205 30.1707 23.6772ZM28.952 28.9251C28.7579 29.1295 28.5438 29.3138 28.3129 29.4753H28.3122C27.6822 29.9184 26.9514 30.2523 26.1751 30.5393L26.754 32.3747C27.6031 32.0607 28.4749 31.6757 29.2897 31.1024L29.2918 31.1007L29.2929 31.1C29.6274 30.8656 29.9369 30.5974 30.2165 30.2995L28.952 28.9251ZM24.528 31.0562C23.4034 31.3586 22.254 31.5889 21.0906 31.7842L21.365 33.7019C22.5624 33.5006 23.7646 33.2602 24.9595 32.9389L24.528 31.0562ZM19.3403 32.0488C18.1692 32.2088 16.9918 32.3393 15.8109 32.4506L15.9656 34.3833C17.1647 34.2706 18.3659 34.138 19.5653 33.9738L19.3403 32.0488ZM14.036 32.6029C12.8527 32.6967 11.6665 32.773 10.4793 32.8374L10.5689 34.775C11.7677 34.7102 12.9675 34.6329 14.1669 34.5377L14.036 32.6029ZM8.69538 32.9249C7.98383 32.9581 7.27053 32.9854 6.55548 33.0106L6.61428 34.95C7.3338 34.9253 8.05318 34.8966 8.77238 34.8639L8.69538 32.9249Z" fill="#1B3B6F"/>
</svg>
