<svg width="25" height="25" viewBox="0 0 25 25" fill="none" xmlns="http://www.w3.org/2000/svg">
<path d="M5 4.6875C5 4.16797 5.41797 3.75 5.9375 3.75H19.0625C19.582 3.75 20 4.16797 20 4.6875C20 5.20703 19.582 5.625 19.0625 5.625H5.9375C5.41797 5.625 5 5.20703 5 4.6875ZM5 8.75C5 8.05859 5.55859 7.5 6.25 7.5H18.75C19.4414 7.5 20 8.05859 20 8.75C20 9.44141 19.4414 10 18.75 10H13.75V20C13.75 20.6914 13.1914 21.25 12.5 21.25C11.8086 21.25 11.25 20.6914 11.25 20V10H6.25C5.55859 10 5 9.44141 5 8.75Z" fill="#F2F8FC"/>
</svg>
