<svg width="15" height="15" viewBox="0 0 15 15" fill="none" xmlns="http://www.w3.org/2000/svg">
<path d="M3 2.8125C3 2.50078 3.25078 2.25 3.5625 2.25H11.4375C11.7492 2.25 12 2.50078 12 2.8125C12 3.12422 11.7492 3.375 11.4375 3.375H3.5625C3.25078 3.375 3 3.12422 3 2.8125ZM3 5.25C3 4.83516 3.33516 4.5 3.75 4.5H11.25C11.6648 4.5 12 4.83516 12 5.25C12 5.66484 11.6648 6 11.25 6H8.25V12C8.25 12.4148 7.91484 12.75 7.5 12.75C7.08515 12.75 6.75 12.4148 6.75 12V6H3.75C3.33516 6 3 5.66484 3 5.25Z" fill="#1B3B6F"/>
</svg>
