<svg width="57" height="57" viewBox="0 0 57 57" fill="none" xmlns="http://www.w3.org/2000/svg">
<path d="M43.6145 11.0104C47.5388 14.9342 49.7832 20.2304 49.8732 25.7791C49.9632 31.3278 47.8916 36.694 44.0966 40.743L43.6145 41.2418L33.5374 51.3165C32.2587 52.5943 30.5422 53.3384 28.7355 53.3979C26.9288 53.4574 25.167 52.828 23.807 51.6371L23.465 51.3165L13.3855 41.2394C9.37689 37.2308 7.12488 31.7939 7.12488 26.1249C7.12488 20.4558 9.37689 15.019 13.3855 11.0104C17.3941 7.00177 22.831 4.74976 28.5 4.74976C34.169 4.74976 39.6059 7.00177 43.6145 11.0104ZM28.5 18.9999C27.5643 18.9999 26.6378 19.1842 25.7734 19.5422C24.9089 19.9003 24.1235 20.4251 23.4619 21.0868C22.8003 21.7484 22.2754 22.5338 21.9174 23.3983C21.5593 24.2627 21.375 25.1892 21.375 26.1249C21.375 27.0606 21.5593 27.9871 21.9174 28.8515C22.2754 29.716 22.8003 30.5014 23.4619 31.163C24.1235 31.8246 24.9089 32.3495 25.7734 32.7075C26.6378 33.0656 27.5643 33.2499 28.5 33.2499C30.3897 33.2499 32.202 32.4992 33.5381 31.163C34.8743 29.8268 35.625 28.0146 35.625 26.1249C35.625 24.2352 34.8743 22.4229 33.5381 21.0868C32.202 19.7506 30.3897 18.9999 28.5 18.9999Z" fill="#F2F8FC"/>
</svg>
