<svg width="35" height="35" viewBox="0 0 35 35" fill="none" xmlns="http://www.w3.org/2000/svg">
<path d="M17.5 8.75L18.8913 14.3792C19.0086 14.8537 19.2814 15.2752 19.6663 15.5765C20.0511 15.8779 20.5258 16.0416 21.0146 16.0417H29.1667" stroke="#21295C" stroke-width="2.5" stroke-linecap="round" stroke-linejoin="round"/>
<path d="M2.91666 8.75H19.0589C21.3179 8.75 22.4467 8.75 23.4048 9.25458C24.3614 9.75917 25.0002 10.691 26.2777 12.5533C27.1717 13.86 28.1123 14.8079 29.4335 15.6523C30.7635 16.501 31.3964 16.9167 31.7464 17.5831C32.0833 18.2204 32.0833 18.9758 32.0833 20.4881C32.0833 22.4817 32.0833 23.4777 31.481 24.1106L31.4023 24.1894C30.7708 24.7917 29.7733 24.7917 27.7812 24.7917M7.29166 24.7917C6.82499 24.7917 6.39478 24.7917 6.16874 24.7435C5.94124 24.694 5.72832 24.5977 5.30103 24.4067L2.91666 23.3333C2.91666 18.6754 3.6152 15.9862 4.52957 13.7812C5.12749 12.3346 5.42791 11.6112 5.30249 10.9667C5.18145 10.325 3.64582 8.75 3.64582 8.75M13.125 24.7917H21.875" stroke="#21295C" stroke-width="2.5" stroke-linecap="round" stroke-linejoin="round"/>
<path d="M24.7917 27.7083C26.4025 27.7083 27.7083 26.4025 27.7083 24.7917C27.7083 23.1808 26.4025 21.875 24.7917 21.875C23.1808 21.875 21.875 23.1808 21.875 24.7917C21.875 26.4025 23.1808 27.7083 24.7917 27.7083Z" stroke="#21295C" stroke-width="2.5"/>
<path d="M10.2083 27.7083C11.8192 27.7083 13.125 26.4025 13.125 24.7917C13.125 23.1808 11.8192 21.875 10.2083 21.875C8.59749 21.875 7.29166 23.1808 7.29166 24.7917C7.29166 26.4025 8.59749 27.7083 10.2083 27.7083Z" stroke="#21295C" stroke-width="2.5"/>
</svg>
