<svg width="58" height="58" viewBox="0 0 58 58" fill="none" xmlns="http://www.w3.org/2000/svg">
<path d="M29 14.5L31.3055 23.8283C31.4999 24.6146 31.952 25.3132 32.5898 25.8125C33.2276 26.3119 34.0142 26.5832 34.8242 26.5833H48.3333" stroke="#F2F8FC" stroke-width="3.5" stroke-linecap="round" stroke-linejoin="round"/>
<path d="M4.83333 14.5H31.5834C35.3268 14.5 37.1973 14.5 38.7851 15.3362C40.3704 16.1723 41.4289 17.7166 43.5459 20.8027C45.0273 22.968 46.5861 24.5388 48.7756 25.9381C50.9796 27.3446 52.0284 28.0333 52.6084 29.1378C53.1667 30.1938 53.1667 31.4457 53.1667 33.9518C53.1667 37.2553 53.1667 38.9059 52.1686 39.9548L52.0381 40.0853C50.9917 41.0833 49.3387 41.0833 46.0375 41.0833M12.0833 41.0833C11.31 41.0833 10.5971 41.0833 10.2225 41.0036C9.84549 40.9214 9.49266 40.7619 8.78458 40.4453L4.83333 38.6667C4.83333 30.9478 5.99091 26.4915 7.50616 22.8375C8.49699 20.4402 8.99483 19.2415 8.78699 18.1733C8.58641 17.11 6.04166 14.5 6.04166 14.5M21.75 41.0833H36.25" stroke="#F2F8FC" stroke-width="3.5" stroke-linecap="round" stroke-linejoin="round"/>
<path d="M41.0833 45.9167C43.7527 45.9167 45.9167 43.7527 45.9167 41.0833C45.9167 38.414 43.7527 36.25 41.0833 36.25C38.414 36.25 36.25 38.414 36.25 41.0833C36.25 43.7527 38.414 45.9167 41.0833 45.9167Z" stroke="#F2F8FC" stroke-width="3.5"/>
<path d="M16.9167 45.9167C19.586 45.9167 21.75 43.7527 21.75 41.0833C21.75 38.414 19.586 36.25 16.9167 36.25C14.2473 36.25 12.0833 38.414 12.0833 41.0833C12.0833 43.7527 14.2473 45.9167 16.9167 45.9167Z" stroke="#F2F8FC" stroke-width="3.5"/>
</svg>
